<svg width="384" height="512" viewBox="0 0 384 512" fill="none" xmlns="http://www.w3.org/2000/svg">
<path d="M278.351 65.3394L279.296 68H282.12H336C360.292 68 380 87.6902 380 112V464C380 488.31 360.292 508 336 508H48C23.7091 508 4 488.291 4 464V112C4 87.6902 23.7081 68 48 68H101.9H104.725L105.67 65.3376C118.33 29.658 152.072 4 192 4C231.927 4 265.671 29.6579 278.351 65.3394ZM228 96C228 76.1209 211.879 60 192 60C172.088 60 156 76.1233 156 96C156 115.912 172.123 132 192 132C211.879 132 228 115.879 228 96ZM260 256C260 218.441 229.559 188 192 188C154.491 188 124 218.491 124 256C124 293.507 154.439 324 192 324C229.559 324 260 293.559 260 256ZM96 452H288C299.009 452 308 443.009 308 432C308 385.611 270.389 348 224 348H160C113.591 348 76 385.591 76 432C76 443.045 84.9549 452 96 452Z" fill="#80ED99" stroke="black" stroke-width="8"/>
</svg>
