<svg width="486" height="975" viewBox="0 0 486 975" fill="none" xmlns="http://www.w3.org/2000/svg">
<path d="M478.077 231.656V234.156H480.577H483.432V333.601H480.577H478.077V336.101V889.904C478.077 900.728 475.946 911.446 471.805 921.446C467.664 931.446 461.594 940.533 453.943 948.187C446.291 955.84 437.208 961.912 427.21 966.054C417.213 970.196 406.499 972.328 395.678 972.328H84.8993C74.0786 972.328 63.3638 970.196 53.3667 966.054C43.3696 961.912 34.286 955.84 26.6345 948.187C18.9829 940.533 12.9134 931.446 8.77239 921.446C4.63137 911.446 2.5 900.728 2.5 889.904V84.9241C2.5 74.0999 4.63137 63.3817 8.77239 53.3815C12.9134 43.3813 18.9829 34.2949 26.6345 26.6411C34.286 18.9874 43.3696 12.9161 53.3667 8.77401C63.3638 4.63188 74.0786 2.49997 84.8993 2.5H395.678C406.499 2.49997 417.213 4.63188 427.21 8.77401C437.208 12.9161 446.291 18.9874 453.943 26.6411C461.594 34.2949 467.664 43.3813 471.805 53.3815C475.946 63.3817 478.077 74.0999 478.077 84.9241V231.656Z" fill="#334E68" stroke="#D9E2EC" stroke-width="5"/>
<path d="M462.506 85.5176V889.306C462.492 898.707 460.397 907.989 456.372 916.484C452.346 924.979 446.49 932.477 439.224 938.44C437.617 939.757 435.941 940.989 434.204 942.129C423.81 949.06 411.593 952.749 399.101 952.73H86.8275C81.7654 952.739 76.7209 952.134 71.8041 950.93C58.0045 947.564 45.7347 939.66 36.9618 928.486C28.1889 917.312 23.4211 903.514 23.4229 889.306V85.5176C23.4244 68.6972 30.105 52.5661 41.9953 40.6723C53.8857 28.7784 70.012 22.0958 86.8275 22.0943H124.719C122.853 26.6689 122.141 31.6322 122.645 36.547C123.149 41.4618 124.854 46.1771 127.609 50.2775C130.365 54.3779 134.086 57.7374 138.445 60.0601C142.805 62.3828 147.668 63.5973 152.607 63.5966H330.641C335.578 63.5913 340.439 62.3731 344.795 60.0492C349.152 57.7254 352.871 54.3668 355.627 50.2687C358.383 46.1705 360.09 41.4582 360.599 36.5457C361.108 31.6331 360.403 26.6707 358.547 22.0943H399.101C415.917 22.0958 432.043 28.7784 443.933 40.6722C455.824 52.5661 462.504 68.6972 462.506 85.5176V85.5176Z" fill="#80ED99"/>
<path d="M351.815 327.726C351.815 336.01 345.099 342.726 336.815 342.726H149C140.716 342.726 134 336.01 134 327.726V119C134 110.716 140.716 104 149 104H336.815C345.099 104 351.815 110.716 351.815 119V327.726Z" fill="#243B53"/>
<path d="M204.572 249.936H165.365V312.667H204.572V249.936Z" fill="#575A89"/>
<path d="M261.204 207.245H221.997V312.667H261.204V207.245Z" fill="#E6E6E6"/>
<path d="M317.836 157.583H278.629V312.667H317.836V157.583Z" fill="#6C63FF"/>
<path d="M330.904 314.41H154.91V132.316H156.652V312.667H330.904V314.41Z" fill="#D9E2EC"/>
<path d="M432.612 600.725C432.612 609.009 425.896 615.725 417.612 615.725H66C57.7157 615.725 51 609.009 51 600.725V392C51 383.716 57.7157 377 66 377H417.612C425.896 377 432.612 383.716 432.612 392V600.725Z" fill="#243B53"/>
<path d="M379.615 565.799H103.997C103.768 565.799 103.549 565.708 103.387 565.546C103.225 565.384 103.134 565.165 103.134 564.936V432.832C103.134 432.604 103.225 432.384 103.387 432.222C103.549 432.061 103.768 431.97 103.997 431.97C104.226 431.97 104.445 432.061 104.607 432.222C104.768 432.384 104.859 432.604 104.859 432.832V564.074H379.615C379.729 564.073 379.841 564.095 379.946 564.138C380.051 564.182 380.146 564.245 380.227 564.325C380.307 564.405 380.371 564.501 380.415 564.605C380.458 564.71 380.48 564.823 380.48 564.936C380.48 565.05 380.458 565.162 380.415 565.267C380.371 565.372 380.307 565.467 380.227 565.547C380.146 565.627 380.051 565.691 379.946 565.734C379.841 565.777 379.729 565.799 379.615 565.799V565.799Z" fill="#D9E2EC"/>
<path d="M162.884 556.31H137.816C137.137 556.31 136.486 556.04 136.006 555.56C135.526 555.08 135.256 554.429 135.255 553.75V519.193C135.256 518.514 135.526 517.863 136.006 517.383C136.486 516.903 137.137 516.633 137.816 516.633H162.884C163.563 516.633 164.214 516.903 164.694 517.383C165.174 517.863 165.444 518.514 165.445 519.193V553.75C165.444 554.429 165.174 555.08 164.694 555.56C164.214 556.04 163.563 556.31 162.884 556.31V556.31Z" fill="#6C63FF"/>
<path d="M208.6 556.31H183.531C182.853 556.31 182.202 556.04 181.722 555.56C181.242 555.08 180.972 554.429 180.971 553.75V486.416C180.972 485.737 181.242 485.086 181.722 484.606C182.202 484.126 182.853 483.856 183.531 483.855H208.6C209.279 483.856 209.93 484.126 210.41 484.606C210.89 485.086 211.16 485.737 211.161 486.416V553.75C211.16 554.429 210.89 555.08 210.41 555.56C209.93 556.04 209.279 556.31 208.6 556.31V556.31Z" fill="#6C63FF"/>
<path d="M254.316 556.31H229.247C228.568 556.31 227.917 556.04 227.437 555.56C226.957 555.08 226.687 554.429 226.687 553.75V519.193C226.687 518.514 226.957 517.863 227.437 517.383C227.917 516.903 228.568 516.633 229.247 516.633H254.316C254.994 516.633 255.645 516.903 256.125 517.383C256.605 517.863 256.875 518.514 256.876 519.193V553.75C256.875 554.429 256.605 555.08 256.125 555.56C255.645 556.04 254.994 556.31 254.316 556.31V556.31Z" fill="#6C63FF"/>
<path d="M300.031 556.31H274.963C274.299 556.325 273.657 556.075 273.177 555.617C272.698 555.159 272.419 554.529 272.402 553.866V473.361C272.419 472.698 272.698 472.068 273.177 471.61C273.657 471.152 274.299 470.903 274.963 470.917H300.031C300.695 470.903 301.337 471.152 301.817 471.61C302.296 472.068 302.575 472.698 302.592 473.361V553.866C302.575 554.529 302.296 555.159 301.817 555.617C301.337 556.075 300.695 556.325 300.031 556.31V556.31Z" fill="#6C63FF"/>
<path d="M345.747 556.31H320.678C320 556.31 319.349 556.04 318.869 555.56C318.389 555.08 318.119 554.429 318.118 553.75V450.188C318.119 449.509 318.389 448.859 318.869 448.379C319.349 447.899 320 447.629 320.678 447.628H345.747C346.426 447.629 347.077 447.899 347.557 448.379C348.037 448.859 348.307 449.509 348.307 450.188V553.75C348.307 554.429 348.037 555.08 347.557 555.56C347.077 556.04 346.426 556.31 345.747 556.31V556.31Z" fill="#6C63FF"/>
<path d="M150.35 506.282C153.208 506.282 155.525 503.965 155.525 501.107C155.525 498.248 153.208 495.931 150.35 495.931C147.492 495.931 145.175 498.248 145.175 501.107C145.175 503.965 147.492 506.282 150.35 506.282Z" fill="#D9E2EC"/>
<path d="M196.066 472.642C198.924 472.642 201.241 470.325 201.241 467.467C201.241 464.609 198.924 462.292 196.066 462.292C193.207 462.292 190.89 464.609 190.89 467.467C190.89 470.325 193.207 472.642 196.066 472.642Z" fill="#D9E2EC"/>
<path d="M241.781 506.282C244.64 506.282 246.957 503.965 246.957 501.107C246.957 498.248 244.64 495.931 241.781 495.931C238.923 495.931 236.606 498.248 236.606 501.107C236.606 503.965 238.923 506.282 241.781 506.282Z" fill="#D9E2EC"/>
<path d="M287.497 456.254C290.355 456.254 292.672 453.936 292.672 451.078C292.672 448.22 290.355 445.903 287.497 445.903C284.639 445.903 282.322 448.22 282.322 451.078C282.322 453.936 284.639 456.254 287.497 456.254Z" fill="#D9E2EC"/>
<path d="M333.213 437.277C336.071 437.277 338.388 434.96 338.388 432.102C338.388 429.244 336.071 426.927 333.213 426.927C330.354 426.927 328.037 429.244 328.037 432.102C328.037 434.96 330.354 437.277 333.213 437.277Z" fill="#D9E2EC"/>
<path d="M241.89 502.266L196.066 467.943L150.867 501.797L149.833 500.416L196.066 465.787L241.672 499.947L286.993 450.352L287.175 450.278L332.89 431.858L333.535 433.459L288.001 451.805L241.89 502.266Z" fill="#D9E2EC"/>
<path d="M350.815 870.725C350.815 879.009 344.099 885.725 335.815 885.725H148C139.716 885.725 133 879.009 133 870.725V662C133 653.716 139.716 647 148 647H335.815C344.099 647 350.815 653.716 350.815 662V870.725Z" fill="#243B53"/>
<path d="M321.192 863.178H275.887V865.015H321.192V863.178Z" fill="#D9E2EC"/>
<path d="M321.192 868.688H275.887V870.525H321.192V868.688Z" fill="#D9E2EC"/>
<path d="M321.192 874.198H275.887V876.035H321.192V874.198Z" fill="#D9E2EC"/>
<path d="M241.907 689.692V708.859C253.281 708.859 264.398 712.232 273.854 718.55C283.311 724.869 290.681 733.85 295.033 744.357C299.386 754.864 300.524 766.426 298.306 777.581C296.087 788.735 290.61 798.981 282.568 807.023L296.122 820.577C306.845 809.854 314.147 796.193 317.105 781.32C320.063 766.447 318.545 751.031 312.742 737.022C306.939 723.012 297.112 711.038 284.504 702.613C271.895 694.188 257.072 689.692 241.907 689.692Z" fill="#E6E6E6"/>
<path d="M296.122 820.577L282.568 807.023C272.737 816.856 259.675 822.793 245.802 823.734C231.929 824.674 218.186 820.555 207.117 812.139L195.516 827.404C210.276 838.623 228.602 844.112 247.099 842.857C265.597 841.602 283.012 833.687 296.122 820.577Z" fill="#575A89"/>
<path d="M184.404 766.362C184.404 758.811 185.892 751.333 188.781 744.357C191.671 737.38 195.907 731.041 201.247 725.701C206.586 720.362 212.925 716.126 219.902 713.236C226.879 710.347 234.356 708.859 241.907 708.859V689.692C225.857 689.691 210.212 694.728 197.176 704.092C184.141 713.456 174.373 726.675 169.249 741.885C164.125 757.095 163.903 773.53 168.616 788.873C173.328 804.216 182.737 817.693 195.516 827.404L207.117 812.139C200.053 806.781 194.327 799.86 190.386 791.917C186.445 783.975 184.398 775.228 184.404 766.362V766.362Z" fill="#6C63FF"/>
</svg>
